<?xml version="1.0" encoding="utf-8"?>
<!-- Generator: Adobe Illustrator 25.0.1, SVG Export Plug-In . SVG Version: 6.00 Build 0)  -->
<svg version="1.1" id="iphone" xmlns="http://www.w3.org/2000/svg" xmlns:xlink="http://www.w3.org/1999/xlink" x="0px" y="0px"
	 viewBox="0 0 1335 2132" style="enable-background:new 0 0 1335 2132;" xml:space="preserve">
<style type="text/css">
	.st0{fill:#FEFEFE;}
</style>
<g>
	<path class="st0" d="M1335,2132c-445.2,0-890.1,0-1335,0C0,1421.4,0,710.7,0,0c445,0,890,0,1335,0
		C1335,710.6,1335,1421.3,1335,2132z"/>
</g>
<path d="M889,172c1.3,0,2.7,0,4,0c0.5,1.5,1.8,1.1,2.9,1.1c6.9,0,13.8,0,20.7,0c1.2,0,2.7,0.7,3.4-1c2.7,0,5.3,0,8,0
	c1.4,1.9,3.4,0.8,5,0.9c17.8,0.9,35.6,1.8,53.1,5c74,13.5,127.8,78,127.8,153.3c0,98.3,0,196.6,0,294.8c0,1.8,0,3.7,0,5.6
	c4.8,1.1,6.4,4.2,6.1,8.8c-0.2,2.8,0.1,5.7,0.1,8.5c0,9,0,18,0,27c0,24.4,0,48.8,0,73.1c0,4.8-0.4,9.3-6.3,10.5c0,6.3,0,12.3,0,18.3
	c0,1.4-0.2,2.8,1.7,3.6c3.6,1.6,4.7,4.8,4.5,8.6c-0.1,3.6,0.1,7.3,0.1,10.9c0,8,0,16,0,24c0,25.4,0,50.7,0,76.1
	c0.1,4.7-1.1,8.6-6.1,10.2c0,2.5,0,4.8,0,7.1c0.3,77.8,0.7,155.7,0.8,233.5c0.2,174.5,0.4,349-1.8,523.5
	c-0.6,44.8,0.1,89.7-4.1,134.4c-3.4,36-19.1,66.4-47.3,89.4c-37.5,30.7-81.7,44.4-129.2,44.4c-88.3,0-176.6-1.9-265-1.6
	c-76.5,0.3-153,0.7-229.4,3.2c-7.7,0-15.4,0-23.1,0c-23.2-1.5-45.9-5.4-67.9-13.3c-66.7-23.8-107.2-81.4-107.1-152.2
	c0.2-67,0.6-134,0.7-201c0.2-144.2,0.3-288.3,0.3-432.5c0-88.5,0-177-2-265.4c-0.1-6.2-0.5-11.8-7-14.8c0-4.3,0-8.7,0-13
	c1.2-1,1-2.4,1-3.7c0-14.8,0-29.6-0.1-44.4c0-14-0.1-28-0.1-42.1c0-16.3,0-32.6,0-49c0.1-7.5,0.2-15,0.2-22.5c0-1.5,1-3.3-1-4.4
	c0-2.7,0-5.3,0-8c1.9-2.2,0.8-6.2,3.8-7.5c3.4-1.4,3.2-3.9,3.2-6.8c-0.2-100-0.5-200-0.5-300c0-23.5-0.4-47,4.5-70.2
	c9.3-44.8,33-79,74.4-99.9c27.3-13.8,56.4-19.6,86.8-19.7c25.7,0,51.3,0,77-0.1c86.5-0.3,173-1.3,259.5-1
	c43.8,0.2,87.7,0.1,131.5,0.1C877.8,173.9,883.5,174.1,889,172z M664.2,436.1c0-29.3,0.4-58.7-0.1-88
	c-1.1-61.1-50.5-109.8-111.5-110.2c-48.3-0.3-96.7-0.3-145,0c-61,0.3-110.9,49-111.7,110c-0.7,58.8-0.7,117.6,0,176.5
	c0.8,60.5,50.4,109.2,111,109.7c48.7,0.4,97.3,0.4,146,0c60.8-0.5,110.1-49.3,111.2-110C664.7,494.8,664.2,465.4,664.2,436.1z"/>
</svg>
